<?xml version="1.0" standalone="no"?>
<!DOCTYPE svg PUBLIC "-//W3C//DTD SVG 20010904//EN"
 "http://www.w3.org/TR/2001/REC-SVG-20010904/DTD/svg10.dtd">
<svg version="1.0" xmlns="http://www.w3.org/2000/svg"
 width="512.000000pt" height="512.000000pt" viewBox="0 0 512.000000 512.000000"
 preserveAspectRatio="xMidYMid meet">

<g transform="translate(0.000000,512.000000) scale(0.100000,-0.100000)"
fill="#ffffff" stroke="none">
<path d="M1525 4519 c-572 -330 -1044 -604 -1048 -608 -8 -8 2067 -1214 2088
-1214 21 0 2096 1206 2088 1214 -6 6 -1827 1060 -2038 1180 l-51 29 -1039
-601z"/>
<path d="M310 2427 l0 -1213 882 -510 c486 -280 958 -553 1050 -606 l168 -97
-2 1216 -3 1216 -1020 589 c-561 324 -1032 596 -1047 604 l-28 15 0 -1214z"/>
<path d="M3770 3036 l-1045 -604 -3 -1215 -2 -1216 142 82 c79 46 551 319
1051 607 l907 524 0 1213 c0 667 -1 1213 -2 1213 -2 0 -473 -272 -1048 -604z"/>
</g>
</svg>
