<!DOCTYPE svg PUBLIC "-//W3C//DTD SVG 1.1//EN" "http://www.w3.org/Graphics/SVG/1.1/DTD/svg11.dtd">
<!-- Uploaded to: SVG Repo, www.svgrepo.com, Transformed by: SVG Repo Mixer Tools -->
<svg fill="#ffffff" height="800px" width="800px" version="1.1" id="Layer_1" xmlns="http://www.w3.org/2000/svg" xmlns:xlink="http://www.w3.org/1999/xlink" viewBox="0 0 511.752 511.752" xml:space="preserve" stroke="#ffffff">
<g id="SVGRepo_bgCarrier" stroke-width="0"/>
<g id="SVGRepo_tracerCarrier" stroke-linecap="round" stroke-linejoin="round"/>
<g id="SVGRepo_iconCarrier"> <g> <g> <path d="M510.596,251.012c-0.064-0.128-0.043-0.299-0.107-0.427l-128-224c-0.107-0.171-0.299-0.235-0.384-0.384 c-0.128-0.192-0.128-0.405-0.277-0.597c-0.896-1.216-1.984-2.176-3.2-2.901c-0.149-0.085-0.341-0.085-0.491-0.171 c-1.344-0.704-2.773-1.045-4.267-1.152c-0.235,0-0.427-0.171-0.661-0.171H138.543c-0.213,0-0.384,0.149-0.576,0.149 c-1.643,0.085-3.264,0.448-4.715,1.28c-0.021,0-0.064,0-0.085,0.021c-1.237,0.725-2.347,1.685-3.243,2.923 c-0.149,0.192-0.171,0.427-0.277,0.619c-0.107,0.149-0.277,0.213-0.384,0.384l-128,224c-0.085,0.149-0.043,0.299-0.128,0.448 c-0.704,1.387-1.045,2.816-1.131,4.288c-0.021,0.512,0.043,0.96,0.107,1.472c0.107,1.195,0.405,2.325,0.896,3.413 c0.128,0.299,0.085,0.661,0.256,0.96l128,224c0.171,0.299,0.491,0.405,0.683,0.683c0.725,1.024,1.557,1.877,2.603,2.603 c0.405,0.277,0.747,0.576,1.173,0.789c1.451,0.768,3.051,1.301,4.821,1.301H373.21c1.771,0,3.371-0.533,4.843-1.301 c0.427-0.213,0.768-0.512,1.173-0.789c1.024-0.725,1.899-1.579,2.603-2.624c0.192-0.256,0.491-0.384,0.661-0.661l128-224 c0.149-0.277,0.107-0.597,0.235-0.896c0.512-1.131,0.832-2.304,0.939-3.541c0.043-0.469,0.107-0.896,0.085-1.365 C511.684,253.871,511.322,252.42,510.596,251.012z M340.42,42.543l-84.544,61.483l-84.523-61.483H340.42z M355.162,319.876 H156.591l99.285-180.501L355.162,319.876z M127.876,439.706l-88.32-154.56l88.32,51.52V439.706z M134.468,315.823L25.05,251.993 L141.892,47.492l100.096,72.811L134.468,315.823z M362.543,469.21H149.21v-128h213.333V469.21z M383.898,439.684V336.665 l88.299-51.499L383.898,439.684z M377.306,315.823l-107.541-195.52L369.86,47.514l116.843,204.48L377.306,315.823z"/> </g> </g> </g>
</svg>