<!DOCTYPE svg PUBLIC "-//W3C//DTD SVG 1.1//EN" "http://www.w3.org/Graphics/SVG/1.1/DTD/svg11.dtd">
<!-- Uploaded to: SVG Repo, www.svgrepo.com, Transformed by: SVG Repo Mixer Tools -->
<svg width="800px" height="800px" viewBox="-2.4 -2.4 28.80 28.80" fill="none" xmlns="http://www.w3.org/2000/svg" stroke="#ffffff">
<g id="SVGRepo_bgCarrier" stroke-width="0">
<path transform="translate(-2.4, -2.4), scale(1.7999999999999998)" fill="#00b9ff" d="M9.166.33a2.25 2.25 0 00-2.332 0l-5.25 3.182A2.25 2.25 0 00.5 5.436v5.128a2.25 2.25 0 001.084 1.924l5.25 3.182a2.25 2.25 0 002.332 0l5.25-3.182a2.25 2.25 0 001.084-1.924V5.436a2.25 2.25 0 00-1.084-1.924L9.166.33z" strokewidth="0"/>
</g>
<g id="SVGRepo_tracerCarrier" stroke-linecap="round" stroke-linejoin="round"/>
<g id="SVGRepo_iconCarrier"> <path fill-rule="evenodd" clip-rule="evenodd" d="M12 7C12.8284 7 13.5 6.32843 13.5 5.5C13.5 4.67157 12.8284 4 12 4C11.1716 4 10.5 4.67157 10.5 5.5C10.5 6.32843 11.1716 7 12 7ZM11 9C10.4477 9 10 9.44772 10 10C10 10.5523 10.4477 11 11 11V19C11 19.5523 11.4477 20 12 20C12.5523 20 13 19.5523 13 19V10C13 9.44772 12.5523 9 12 9H11Z" fill="#ffffff"/> </g>
</svg>