<!DOCTYPE svg PUBLIC "-//W3C//DTD SVG 1.1//EN" "http://www.w3.org/Graphics/SVG/1.1/DTD/svg11.dtd">
<!-- Uploaded to: SVG Repo, www.svgrepo.com, Transformed by: SVG Repo Mixer Tools -->
<svg fill="#ffffff" xmlns="http://www.w3.org/2000/svg" width="800px" height="800px" viewBox="-16.64 -16.64 85.28 85.28" enable-background="new 0 0 52 52" xml:space="preserve" stroke="#ffffff">
<g id="SVGRepo_bgCarrier" stroke-width="0">
<path transform="translate(-16.64, -16.64), scale(5.33)" fill="#29b7ff" d="M9.166.33a2.25 2.25 0 00-2.332 0l-5.25 3.182A2.25 2.25 0 00.5 5.436v5.128a2.25 2.25 0 001.084 1.924l5.25 3.182a2.25 2.25 0 002.332 0l5.25-3.182a2.25 2.25 0 001.084-1.924V5.436a2.25 2.25 0 00-1.084-1.924L9.166.33z" strokewidth="0"/>
</g>
<g id="SVGRepo_tracerCarrier" stroke-linecap="round" stroke-linejoin="round"/>
<g id="SVGRepo_iconCarrier"> <g> <path d="M50,48.5c0,0.8-0.7,1.5-1.5,1.5h-45C2.7,50,2,49.3,2,48.5v-3C2,44.7,2.7,44,3.5,44h45 c0.8,0,1.5,0.7,1.5,1.5V48.5z"/> </g> </g>
</svg>