# MagicaVoxel @ Ephtracy

# group
o 

# material
mtllib Railway Track.mtl
usemtl palette

# normals
vn -1 0 0
vn 1 0 0
vn 0 0 1
vn 0 0 -1
vn 0 -1 0
vn 0 1 0

# texcoords
vt 0.224609 0.5
vt 0.978516 0.5

# verts
v -1.2 0.1 0.3
v -1.2 0.1 0.2
v -1.2 0.1 -0.4
v -1.2 0.1 -0.5
v -1.2 0.2 0.3
v -1.2 0.2 0.2
v -1.2 0.2 -0.4
v -1.2 0.2 -0.5
v -1.1 0 0.4
v -1.1 0 -0.6
v -1.1 0.1 0.4
v -1.1 0.1 0.3
v -1.1 0.1 0.2
v -1.1 0.1 -0.4
v -1.1 0.1 -0.5
v -1.1 0.1 -0.6
v -0.6 0 0.4
v -0.6 0 -0.6
v -0.6 0.1 0.4
v -0.6 0.1 0.3
v -0.6 0.1 0.2
v -0.6 0.1 -0.4
v -0.6 0.1 -0.5
v -0.6 0.1 -0.6
v -0.0999999 0 0.4
v -0.0999999 0 -0.6
v -0.0999999 0.1 0.4
v -0.0999999 0.1 0.3
v -0.0999999 0.1 0.2
v -0.0999999 0.1 -0.4
v -0.0999999 0.1 -0.5
v -0.0999999 0.1 -0.6
v 0.4 0 0.4
v 0.4 0 -0.6
v 0.4 0.1 0.4
v 0.4 0.1 0.3
v 0.4 0.1 0.2
v 0.4 0.1 -0.4
v 0.4 0.1 -0.5
v 0.4 0.1 -0.6
v 0.9 0 0.4
v 0.9 0 -0.6
v 0.9 0.1 0.4
v 0.9 0.1 0.3
v 0.9 0.1 0.2
v 0.9 0.1 -0.4
v 0.9 0.1 -0.5
v 0.9 0.1 -0.6
v 1.4 0 0.4
v 1.4 0 -0.6
v 1.4 0.1 0.4
v 1.4 0.1 0.3
v 1.4 0.1 0.2
v 1.4 0.1 -0.4
v 1.4 0.1 -0.5
v 1.4 0.1 -0.6
v -0.9 0 0.4
v -0.9 0 -0.6
v -0.9 0.1 0.4
v -0.9 0.1 0.3
v -0.9 0.1 0.2
v -0.9 0.1 -0.4
v -0.9 0.1 -0.5
v -0.9 0.1 -0.6
v -0.4 0 0.4
v -0.4 0 -0.6
v -0.4 0.1 0.4
v -0.4 0.1 0.3
v -0.4 0.1 0.2
v -0.4 0.1 -0.4
v -0.4 0.1 -0.5
v -0.4 0.1 -0.6
v 0.1 0 0.4
v 0.1 0 -0.6
v 0.1 0.1 0.4
v 0.1 0.1 0.3
v 0.1 0.1 0.2
v 0.1 0.1 -0.4
v 0.1 0.1 -0.5
v 0.1 0.1 -0.6
v 0.6 0 0.4
v 0.6 0 -0.6
v 0.6 0.1 0.4
v 0.6 0.1 0.3
v 0.6 0.1 0.2
v 0.6 0.1 -0.4
v 0.6 0.1 -0.5
v 0.6 0.1 -0.6
v 1.1 0 0.4
v 1.1 0 -0.6
v 1.1 0.1 0.4
v 1.1 0.1 0.3
v 1.1 0.1 0.2
v 1.1 0.1 -0.4
v 1.1 0.1 -0.5
v 1.1 0.1 -0.6
v 1.6 0 0.4
v 1.6 0 -0.6
v 1.6 0.1 0.4
v 1.6 0.1 0.3
v 1.6 0.1 0.2
v 1.6 0.1 -0.4
v 1.6 0.1 -0.5
v 1.6 0.1 -0.6
v 1.7 0.1 0.3
v 1.7 0.1 0.2
v 1.7 0.1 -0.4
v 1.7 0.1 -0.5
v 1.7 0.2 0.3
v 1.7 0.2 0.2
v 1.7 0.2 -0.4
v 1.7 0.2 -0.5
v -1.1 0 0.4
v -1.1 0.1 0.4
v -0.9 0 0.4
v -0.9 0.1 0.4
v -0.6 0 0.4
v -0.6 0.1 0.4
v -0.4 0 0.4
v -0.4 0.1 0.4
v -0.0999999 0 0.4
v -0.0999999 0.1 0.4
v 0.1 0 0.4
v 0.1 0.1 0.4
v 0.4 0 0.4
v 0.4 0.1 0.4
v 0.6 0 0.4
v 0.6 0.1 0.4
v 0.9 0 0.4
v 0.9 0.1 0.4
v 1.1 0 0.4
v 1.1 0.1 0.4
v 1.4 0 0.4
v 1.4 0.1 0.4
v 1.6 0 0.4
v 1.6 0.1 0.4
v -1.2 0.1 0.3
v -1.2 0.2 0.3
v -1.1 0.1 0.3
v -0.9 0.1 0.3
v -0.6 0.1 0.3
v -0.4 0.1 0.3
v -0.0999999 0.1 0.3
v 0.1 0.1 0.3
v 0.4 0.1 0.3
v 0.6 0.1 0.3
v 0.9 0.1 0.3
v 1.1 0.1 0.3
v 1.4 0.1 0.3
v 1.6 0.1 0.3
v 1.7 0.1 0.3
v 1.7 0.2 0.3
v -1.2 0.1 -0.4
v -1.2 0.2 -0.4
v -1.1 0.1 -0.4
v -0.9 0.1 -0.4
v -0.6 0.1 -0.4
v -0.4 0.1 -0.4
v -0.0999999 0.1 -0.4
v 0.1 0.1 -0.4
v 0.4 0.1 -0.4
v 0.6 0.1 -0.4
v 0.9 0.1 -0.4
v 1.1 0.1 -0.4
v 1.4 0.1 -0.4
v 1.6 0.1 -0.4
v 1.7 0.1 -0.4
v 1.7 0.2 -0.4
v -1.2 0.1 0.2
v -1.2 0.2 0.2
v -1.1 0.1 0.2
v -0.9 0.1 0.2
v -0.6 0.1 0.2
v -0.4 0.1 0.2
v -0.0999999 0.1 0.2
v 0.1 0.1 0.2
v 0.4 0.1 0.2
v 0.6 0.1 0.2
v 0.9 0.1 0.2
v 1.1 0.1 0.2
v 1.4 0.1 0.2
v 1.6 0.1 0.2
v 1.7 0.1 0.2
v 1.7 0.2 0.2
v -1.2 0.1 -0.5
v -1.2 0.2 -0.5
v -1.1 0.1 -0.5
v -0.9 0.1 -0.5
v -0.6 0.1 -0.5
v -0.4 0.1 -0.5
v -0.0999999 0.1 -0.5
v 0.1 0.1 -0.5
v 0.4 0.1 -0.5
v 0.6 0.1 -0.5
v 0.9 0.1 -0.5
v 1.1 0.1 -0.5
v 1.4 0.1 -0.5
v 1.6 0.1 -0.5
v 1.7 0.1 -0.5
v 1.7 0.2 -0.5
v -1.1 0 -0.6
v -1.1 0.1 -0.6
v -0.9 0 -0.6
v -0.9 0.1 -0.6
v -0.6 0 -0.6
v -0.6 0.1 -0.6
v -0.4 0 -0.6
v -0.4 0.1 -0.6
v -0.0999999 0 -0.6
v -0.0999999 0.1 -0.6
v 0.1 0 -0.6
v 0.1 0.1 -0.6
v 0.4 0 -0.6
v 0.4 0.1 -0.6
v 0.6 0 -0.6
v 0.6 0.1 -0.6
v 0.9 0 -0.6
v 0.9 0.1 -0.6
v 1.1 0 -0.6
v 1.1 0.1 -0.6
v 1.4 0 -0.6
v 1.4 0.1 -0.6
v 1.6 0 -0.6
v 1.6 0.1 -0.6
v -1.1 0 0.4
v -0.9 0 0.4
v -0.6 0 0.4
v -0.4 0 0.4
v -0.0999999 0 0.4
v 0.1 0 0.4
v 0.4 0 0.4
v 0.6 0 0.4
v 0.9 0 0.4
v 1.1 0 0.4
v 1.4 0 0.4
v 1.6 0 0.4
v -1.1 0 -0.6
v -0.9 0 -0.6
v -0.6 0 -0.6
v -0.4 0 -0.6
v -0.0999999 0 -0.6
v 0.1 0 -0.6
v 0.4 0 -0.6
v 0.6 0 -0.6
v 0.9 0 -0.6
v 1.1 0 -0.6
v 1.4 0 -0.6
v 1.6 0 -0.6
v -1.2 0.1 0.3
v -1.1 0.1 0.3
v -0.9 0.1 0.3
v -0.6 0.1 0.3
v -0.4 0.1 0.3
v -0.0999999 0.1 0.3
v 0.1 0.1 0.3
v 0.4 0.1 0.3
v 0.6 0.1 0.3
v 0.9 0.1 0.3
v 1.1 0.1 0.3
v 1.4 0.1 0.3
v 1.6 0.1 0.3
v 1.7 0.1 0.3
v -1.2 0.1 0.2
v -1.1 0.1 0.2
v -0.9 0.1 0.2
v -0.6 0.1 0.2
v -0.4 0.1 0.2
v -0.0999999 0.1 0.2
v 0.1 0.1 0.2
v 0.4 0.1 0.2
v 0.6 0.1 0.2
v 0.9 0.1 0.2
v 1.1 0.1 0.2
v 1.4 0.1 0.2
v 1.6 0.1 0.2
v 1.7 0.1 0.2
v -1.2 0.1 -0.4
v -1.1 0.1 -0.4
v -0.9 0.1 -0.4
v -0.6 0.1 -0.4
v -0.4 0.1 -0.4
v -0.0999999 0.1 -0.4
v 0.1 0.1 -0.4
v 0.4 0.1 -0.4
v 0.6 0.1 -0.4
v 0.9 0.1 -0.4
v 1.1 0.1 -0.4
v 1.4 0.1 -0.4
v 1.6 0.1 -0.4
v 1.7 0.1 -0.4
v -1.2 0.1 -0.5
v -1.1 0.1 -0.5
v -0.9 0.1 -0.5
v -0.6 0.1 -0.5
v -0.4 0.1 -0.5
v -0.0999999 0.1 -0.5
v 0.1 0.1 -0.5
v 0.4 0.1 -0.5
v 0.6 0.1 -0.5
v 0.9 0.1 -0.5
v 1.1 0.1 -0.5
v 1.4 0.1 -0.5
v 1.6 0.1 -0.5
v 1.7 0.1 -0.5
v -1.1 0.1 0.4
v -0.9 0.1 0.4
v -0.6 0.1 0.4
v -0.4 0.1 0.4
v -0.0999999 0.1 0.4
v 0.1 0.1 0.4
v 0.4 0.1 0.4
v 0.6 0.1 0.4
v 0.9 0.1 0.4
v 1.1 0.1 0.4
v 1.4 0.1 0.4
v 1.6 0.1 0.4
v -1.1 0.1 0.3
v -0.9 0.1 0.3
v -0.6 0.1 0.3
v -0.4 0.1 0.3
v -0.0999999 0.1 0.3
v 0.1 0.1 0.3
v 0.4 0.1 0.3
v 0.6 0.1 0.3
v 0.9 0.1 0.3
v 1.1 0.1 0.3
v 1.4 0.1 0.3
v 1.6 0.1 0.3
v -1.1 0.1 0.2
v -0.9 0.1 0.2
v -0.6 0.1 0.2
v -0.4 0.1 0.2
v -0.0999999 0.1 0.2
v 0.1 0.1 0.2
v 0.4 0.1 0.2
v 0.6 0.1 0.2
v 0.9 0.1 0.2
v 1.1 0.1 0.2
v 1.4 0.1 0.2
v 1.6 0.1 0.2
v -1.1 0.1 -0.4
v -0.9 0.1 -0.4
v -0.6 0.1 -0.4
v -0.4 0.1 -0.4
v -0.0999999 0.1 -0.4
v 0.1 0.1 -0.4
v 0.4 0.1 -0.4
v 0.6 0.1 -0.4
v 0.9 0.1 -0.4
v 1.1 0.1 -0.4
v 1.4 0.1 -0.4
v 1.6 0.1 -0.4
v -1.1 0.1 -0.5
v -0.9 0.1 -0.5
v -0.6 0.1 -0.5
v -0.4 0.1 -0.5
v -0.0999999 0.1 -0.5
v 0.1 0.1 -0.5
v 0.4 0.1 -0.5
v 0.6 0.1 -0.5
v 0.9 0.1 -0.5
v 1.1 0.1 -0.5
v 1.4 0.1 -0.5
v 1.6 0.1 -0.5
v -1.1 0.1 -0.6
v -0.9 0.1 -0.6
v -0.6 0.1 -0.6
v -0.4 0.1 -0.6
v -0.0999999 0.1 -0.6
v 0.1 0.1 -0.6
v 0.4 0.1 -0.6
v 0.6 0.1 -0.6
v 0.9 0.1 -0.6
v 1.1 0.1 -0.6
v 1.4 0.1 -0.6
v 1.6 0.1 -0.6
v -1.2 0.2 0.3
v 1.7 0.2 0.3
v -1.2 0.2 0.2
v 1.7 0.2 0.2
v -1.2 0.2 -0.4
v 1.7 0.2 -0.4
v -1.2 0.2 -0.5
v 1.7 0.2 -0.5

# faces
f 5/2/1 2/2/1 1/2/1
f 6/2/1 2/2/1 5/2/1
f 7/2/1 4/2/1 3/2/1
f 8/2/1 4/2/1 7/2/1
f 11/1/1 10/1/1 9/1/1
f 12/1/1 10/1/1 11/1/1
f 13/1/1 10/1/1 12/1/1
f 14/1/1 10/1/1 13/1/1
f 15/1/1 10/1/1 14/1/1
f 16/1/1 10/1/1 15/1/1
f 19/1/1 18/1/1 17/1/1
f 20/1/1 18/1/1 19/1/1
f 21/1/1 18/1/1 20/1/1
f 22/1/1 18/1/1 21/1/1
f 23/1/1 18/1/1 22/1/1
f 24/1/1 18/1/1 23/1/1
f 27/1/1 26/1/1 25/1/1
f 28/1/1 26/1/1 27/1/1
f 29/1/1 26/1/1 28/1/1
f 30/1/1 26/1/1 29/1/1
f 31/1/1 26/1/1 30/1/1
f 32/1/1 26/1/1 31/1/1
f 35/1/1 34/1/1 33/1/1
f 36/1/1 34/1/1 35/1/1
f 37/1/1 34/1/1 36/1/1
f 38/1/1 34/1/1 37/1/1
f 39/1/1 34/1/1 38/1/1
f 40/1/1 34/1/1 39/1/1
f 43/1/1 42/1/1 41/1/1
f 44/1/1 42/1/1 43/1/1
f 45/1/1 42/1/1 44/1/1
f 46/1/1 42/1/1 45/1/1
f 47/1/1 42/1/1 46/1/1
f 48/1/1 42/1/1 47/1/1
f 51/1/1 50/1/1 49/1/1
f 52/1/1 50/1/1 51/1/1
f 53/1/1 50/1/1 52/1/1
f 54/1/1 50/1/1 53/1/1
f 55/1/1 50/1/1 54/1/1
f 56/1/1 50/1/1 55/1/1
f 57/1/2 58/1/2 59/1/2
f 59/1/2 58/1/2 60/1/2
f 60/1/2 58/1/2 61/1/2
f 61/1/2 58/1/2 62/1/2
f 62/1/2 58/1/2 63/1/2
f 63/1/2 58/1/2 64/1/2
f 65/1/2 66/1/2 67/1/2
f 67/1/2 66/1/2 68/1/2
f 68/1/2 66/1/2 69/1/2
f 69/1/2 66/1/2 70/1/2
f 70/1/2 66/1/2 71/1/2
f 71/1/2 66/1/2 72/1/2
f 73/1/2 74/1/2 75/1/2
f 75/1/2 74/1/2 76/1/2
f 76/1/2 74/1/2 77/1/2
f 77/1/2 74/1/2 78/1/2
f 78/1/2 74/1/2 79/1/2
f 79/1/2 74/1/2 80/1/2
f 81/1/2 82/1/2 83/1/2
f 83/1/2 82/1/2 84/1/2
f 84/1/2 82/1/2 85/1/2
f 85/1/2 82/1/2 86/1/2
f 86/1/2 82/1/2 87/1/2
f 87/1/2 82/1/2 88/1/2
f 89/1/2 90/1/2 91/1/2
f 91/1/2 90/1/2 92/1/2
f 92/1/2 90/1/2 93/1/2
f 93/1/2 90/1/2 94/1/2
f 94/1/2 90/1/2 95/1/2
f 95/1/2 90/1/2 96/1/2
f 97/1/2 98/1/2 99/1/2
f 99/1/2 98/1/2 100/1/2
f 100/1/2 98/1/2 101/1/2
f 101/1/2 98/1/2 102/1/2
f 102/1/2 98/1/2 103/1/2
f 103/1/2 98/1/2 104/1/2
f 105/2/2 106/2/2 109/2/2
f 109/2/2 106/2/2 110/2/2
f 107/2/2 108/2/2 111/2/2
f 111/2/2 108/2/2 112/2/2
f 115/1/3 114/1/3 113/1/3
f 116/1/3 114/1/3 115/1/3
f 119/1/3 118/1/3 117/1/3
f 120/1/3 118/1/3 119/1/3
f 123/1/3 122/1/3 121/1/3
f 124/1/3 122/1/3 123/1/3
f 127/1/3 126/1/3 125/1/3
f 128/1/3 126/1/3 127/1/3
f 131/1/3 130/1/3 129/1/3
f 132/1/3 130/1/3 131/1/3
f 135/1/3 134/1/3 133/1/3
f 136/1/3 134/1/3 135/1/3
f 139/2/3 138/2/3 137/2/3
f 140/2/3 138/2/3 139/2/3
f 141/2/3 138/2/3 140/2/3
f 142/2/3 138/2/3 141/2/3
f 143/2/3 138/2/3 142/2/3
f 144/2/3 138/2/3 143/2/3
f 145/2/3 138/2/3 144/2/3
f 146/2/3 138/2/3 145/2/3
f 147/2/3 138/2/3 146/2/3
f 148/2/3 138/2/3 147/2/3
f 149/2/3 138/2/3 148/2/3
f 150/2/3 138/2/3 149/2/3
f 151/2/3 138/2/3 150/2/3
f 152/2/3 138/2/3 151/2/3
f 155/2/3 154/2/3 153/2/3
f 156/2/3 154/2/3 155/2/3
f 157/2/3 154/2/3 156/2/3
f 158/2/3 154/2/3 157/2/3
f 159/2/3 154/2/3 158/2/3
f 160/2/3 154/2/3 159/2/3
f 161/2/3 154/2/3 160/2/3
f 162/2/3 154/2/3 161/2/3
f 163/2/3 154/2/3 162/2/3
f 164/2/3 154/2/3 163/2/3
f 165/2/3 154/2/3 164/2/3
f 166/2/3 154/2/3 165/2/3
f 167/2/3 154/2/3 166/2/3
f 168/2/3 154/2/3 167/2/3
f 169/2/4 170/2/4 171/2/4
f 171/2/4 170/2/4 172/2/4
f 172/2/4 170/2/4 173/2/4
f 173/2/4 170/2/4 174/2/4
f 174/2/4 170/2/4 175/2/4
f 175/2/4 170/2/4 176/2/4
f 176/2/4 170/2/4 177/2/4
f 177/2/4 170/2/4 178/2/4
f 178/2/4 170/2/4 179/2/4
f 179/2/4 170/2/4 180/2/4
f 180/2/4 170/2/4 181/2/4
f 181/2/4 170/2/4 182/2/4
f 182/2/4 170/2/4 183/2/4
f 183/2/4 170/2/4 184/2/4
f 185/2/4 186/2/4 187/2/4
f 187/2/4 186/2/4 188/2/4
f 188/2/4 186/2/4 189/2/4
f 189/2/4 186/2/4 190/2/4
f 190/2/4 186/2/4 191/2/4
f 191/2/4 186/2/4 192/2/4
f 192/2/4 186/2/4 193/2/4
f 193/2/4 186/2/4 194/2/4
f 194/2/4 186/2/4 195/2/4
f 195/2/4 186/2/4 196/2/4
f 196/2/4 186/2/4 197/2/4
f 197/2/4 186/2/4 198/2/4
f 198/2/4 186/2/4 199/2/4
f 199/2/4 186/2/4 200/2/4
f 201/1/4 202/1/4 203/1/4
f 203/1/4 202/1/4 204/1/4
f 205/1/4 206/1/4 207/1/4
f 207/1/4 206/1/4 208/1/4
f 209/1/4 210/1/4 211/1/4
f 211/1/4 210/1/4 212/1/4
f 213/1/4 214/1/4 215/1/4
f 215/1/4 214/1/4 216/1/4
f 217/1/4 218/1/4 219/1/4
f 219/1/4 218/1/4 220/1/4
f 221/1/4 222/1/4 223/1/4
f 223/1/4 222/1/4 224/1/4
f 237/1/5 226/1/5 225/1/5
f 238/1/5 226/1/5 237/1/5
f 239/1/5 228/1/5 227/1/5
f 240/1/5 228/1/5 239/1/5
f 241/1/5 230/1/5 229/1/5
f 242/1/5 230/1/5 241/1/5
f 243/1/5 232/1/5 231/1/5
f 244/1/5 232/1/5 243/1/5
f 245/1/5 234/1/5 233/1/5
f 246/1/5 234/1/5 245/1/5
f 247/1/5 236/1/5 235/1/5
f 248/1/5 236/1/5 247/1/5
f 263/2/5 250/2/5 249/2/5
f 264/2/5 250/2/5 263/2/5
f 265/2/5 252/2/5 251/2/5
f 266/2/5 252/2/5 265/2/5
f 267/2/5 254/2/5 253/2/5
f 268/2/5 254/2/5 267/2/5
f 269/2/5 256/2/5 255/2/5
f 270/2/5 256/2/5 269/2/5
f 271/2/5 258/2/5 257/2/5
f 272/2/5 258/2/5 271/2/5
f 273/2/5 260/2/5 259/2/5
f 274/2/5 260/2/5 273/2/5
f 275/2/5 262/2/5 261/2/5
f 276/2/5 262/2/5 275/2/5
f 291/2/5 278/2/5 277/2/5
f 292/2/5 278/2/5 291/2/5
f 293/2/5 280/2/5 279/2/5
f 294/2/5 280/2/5 293/2/5
f 295/2/5 282/2/5 281/2/5
f 296/2/5 282/2/5 295/2/5
f 297/2/5 284/2/5 283/2/5
f 298/2/5 284/2/5 297/2/5
f 299/2/5 286/2/5 285/2/5
f 300/2/5 286/2/5 299/2/5
f 301/2/5 288/2/5 287/2/5
f 302/2/5 288/2/5 301/2/5
f 303/2/5 290/2/5 289/2/5
f 304/2/5 290/2/5 303/2/5
f 305/1/6 306/1/6 317/1/6
f 317/1/6 306/1/6 318/1/6
f 307/1/6 308/1/6 319/1/6
f 319/1/6 308/1/6 320/1/6
f 309/1/6 310/1/6 321/1/6
f 321/1/6 310/1/6 322/1/6
f 311/1/6 312/1/6 323/1/6
f 323/1/6 312/1/6 324/1/6
f 313/1/6 314/1/6 325/1/6
f 325/1/6 314/1/6 326/1/6
f 315/1/6 316/1/6 327/1/6
f 327/1/6 316/1/6 328/1/6
f 329/1/6 330/1/6 341/1/6
f 341/1/6 330/1/6 342/1/6
f 331/1/6 332/1/6 343/1/6
f 343/1/6 332/1/6 344/1/6
f 333/1/6 334/1/6 345/1/6
f 345/1/6 334/1/6 346/1/6
f 335/1/6 336/1/6 347/1/6
f 347/1/6 336/1/6 348/1/6
f 337/1/6 338/1/6 349/1/6
f 349/1/6 338/1/6 350/1/6
f 339/1/6 340/1/6 351/1/6
f 351/1/6 340/1/6 352/1/6
f 353/1/6 354/1/6 365/1/6
f 365/1/6 354/1/6 366/1/6
f 355/1/6 356/1/6 367/1/6
f 367/1/6 356/1/6 368/1/6
f 357/1/6 358/1/6 369/1/6
f 369/1/6 358/1/6 370/1/6
f 359/1/6 360/1/6 371/1/6
f 371/1/6 360/1/6 372/1/6
f 361/1/6 362/1/6 373/1/6
f 373/1/6 362/1/6 374/1/6
f 363/1/6 364/1/6 375/1/6
f 375/1/6 364/1/6 376/1/6
f 377/2/6 378/2/6 379/2/6
f 379/2/6 378/2/6 380/2/6
f 381/2/6 382/2/6 383/2/6
f 383/2/6 382/2/6 384/2/6
